<?xml version="1.0" encoding="UTF-8"?>
<svg id="_Layer_2" data-name="Layer 2" xmlns="http://www.w3.org/2000/svg" viewBox="0 0 416.19 235">
  <defs>
    <style>
      .cls-1 {
        fill: #fff;
      }

      .cls-2 {
        fill: none;
        stroke: #fff;
        stroke-miterlimit: 10;
        stroke-width: 20px;
      }
    </style>
  </defs>
  <g id="_Layer_1-2" data-name="Layer 1">
    <path class="cls-1" d="M76.01,122.78c40.91-23.62,78.93-36.78,92.73-32.98-.96-1.35-2.23-2.54-3.82-3.46L18.22,1.65C10.12-3.03,0,2.81,0,12.16V181.56c0,1.82,.39,3.51,1.07,5.02,3.64-13.86,34.06-40.19,74.94-63.8Z"/>
    <path class="cls-1" d="M340.18,122.78c-40.91-23.62-78.93-36.78-92.73-32.98,.96-1.35,2.23-2.54,3.82-3.46L397.97,1.65c8.1-4.67,18.22,1.17,18.22,10.52V181.56c0,1.82-.39,3.51-1.07,5.02-3.64-13.86-34.06-40.19-74.94-63.8Z"/>
    <path class="cls-2" d="M393.24,227.93c-127.18-127.18-243.11-127.18-370.29,0"/>
  </g>
</svg>