<?xml version="1.0" encoding="UTF-8"?>
<svg id="_Слой_2" data-name="Слой 2" xmlns="http://www.w3.org/2000/svg" viewBox="0 0 364.56 265.15">
  <defs>
    <style>
      .cls-1 {
        fill: none;
        stroke: #231300;
        stroke-miterlimit: 10;
        stroke-width: 26px;
      }

      .cls-2 {
        fill: #231300;
      }
    </style>
  </defs>
  <g id="_Слой_1-2" data-name="Слой 1">
    <path class="cls-2" d="M76.18,122.78c40.91-23.62,78.93-36.78,92.73-32.98-.96-1.35-2.23-2.54-3.82-3.46L18.39,1.65C10.29-3.03,.17,2.81,.17,12.16V181.56c0,1.82,.39,3.51,1.07,5.02,3.64-13.86,34.06-40.19,74.94-63.8Z"/>
    <path class="cls-2" d="M288.55,122.78c-40.91-23.62-78.93-36.78-92.73-32.98,.96-1.35,2.23-2.54,3.82-3.46L346.35,1.65c8.1-4.67,18.22,1.17,18.22,10.52V181.56c0,1.82-.39,3.51-1.07,5.02-3.64-13.86-34.06-40.19-74.94-63.8Z"/>
    <path class="cls-1" d="M9.19,255.95c126.3-126.3,218.95-126.3,345.25,0"/>
  </g>
</svg>