<?xml version="1.0" encoding="UTF-8"?>
<svg id="_Слой_2" data-name="Слой 2" xmlns="http://www.w3.org/2000/svg" viewBox="0 0 382.26 282.84">
  <defs>
    <style>
      .cls-1 {
        stroke-width: 17px;
      }

      .cls-1, .cls-2 {
        fill: #231300;
        stroke: #fff;
        stroke-miterlimit: 10;
      }

      .cls-2 {
        stroke-width: 13px;
      }
    </style>
  </defs>
  <g id="_Слой_1-2" data-name="Слой 1">
    <path class="cls-1" d="M85.37,131.28c40.91-23.62,78.93-36.78,92.73-32.98-.96-1.35-2.23-2.54-3.82-3.46L27.58,10.15c-8.1-4.67-18.22,1.17-18.22,10.52V190.06c0,1.82,.39,3.51,1.07,5.02,3.64-13.86,34.06-40.19,74.94-63.8Z"/>
    <path class="cls-1" d="M297.75,131.28c-40.91-23.62-78.93-36.78-92.73-32.98,.96-1.35,2.23-2.54,3.82-3.46L355.54,10.15c8.1-4.67,18.22,1.17,18.22,10.52V190.06c0,1.82-.39,3.51-1.07,5.02-3.64-13.86-34.06-40.19-74.94-63.8Z"/>
    <path class="cls-2" d="M354.44,273.65c-62.03-62.03-113.96-90.92-163.43-90.92s-101.4,28.89-163.43,90.92l-18.38-18.38c67.22-67.22,125-98.53,181.82-98.53s114.59,31.31,181.82,98.53l-18.38,18.38Z"/>
  </g>
</svg>