<?xml version="1.0" encoding="UTF-8"?>
<svg id="_Слой_2" data-name="Слой 2" xmlns="http://www.w3.org/2000/svg" viewBox="0 0 595.28 841.89">
  <defs>
    <style>
      .cls-1 {
        fill: #f9f9f9;
      }

      .cls-2 {
        fill: #e2e2e1;
      }

      .cls-3 {
        fill: none;
        stroke: #e2e2e1;
        stroke-miterlimit: 10;
        stroke-width: 10px;
      }
    </style>
  </defs>
  <g id="_Слой_1-2" data-name="Слой 1">
    <rect class="cls-1" width="595.28" height="841.89"/>
    <rect class="cls-3" x="165.66" y="330.05" width="263.95" height="181.78" rx="9.38" ry="9.38"/>
    <path class="cls-2" d="M244.64,425.71c16.81-9.7,32.42-15.11,38.09-13.55-.4-.55-.92-1.04-1.57-1.42l-60.27-34.79c-3.33-1.92-7.48,.48-7.48,4.32v69.59c0,.75,.16,1.44,.44,2.06,1.49-5.69,13.99-16.51,30.79-26.21Z"/>
    <path class="cls-2" d="M350.63,425.71c-16.81-9.7-32.42-15.11-38.09-13.55,.4-.55,.92-1.04,1.57-1.42l60.27-34.79c3.33-1.92,7.48,.48,7.48,4.32v69.59c0,.75-.16,1.44-.44,2.06-1.49-5.69-13.99-16.51-30.79-26.21Z"/>
  </g>
</svg>